<?xml version="1.0" encoding="utf-8"?>
<!-- Generator: Adobe Illustrator 26.0.0, SVG Export Plug-In . SVG Version: 6.00 Build 0)  -->
<svg version="1.1" id="Layer_1" xmlns="http://www.w3.org/2000/svg" xmlns:xlink="http://www.w3.org/1999/xlink" x="0px" y="0px"
	 viewBox="0 0 1200 900" style="enable-background:new 0 0 1200 900;" xml:space="preserve">
<style type="text/css">
	.st0{fill-rule:evenodd;clip-rule:evenodd;fill:#FFFFFF;}
</style>
<g>
	<rect y="0" width="1200" height="900"/>
	<g>
		<path class="st0" d="M280.3,326.9c-24.3,0-48.1,7.2-68.4,20.7c-20.2,13.5-36,32.7-45.3,55.2c-9.3,22.5-11.8,47.2-7,71.1
			c4.7,23.9,16.5,45.8,33.7,63c17.2,17.2,39.1,28.9,63,33.7c23.9,4.7,48.6,2.3,71.1-7s41.7-25.1,55.2-45.3
			c13.5-20.2,20.7-44,20.7-68.4c0-16.2-3.2-32.2-9.4-47.1c-6.2-14.9-15.3-28.5-26.7-39.9c-11.4-11.4-25-20.5-39.9-26.7
			C312.5,330.1,296.5,326.9,280.3,326.9z M342.1,490.6c0,25.1-13,39.5-37.2,39.5c-10.5,0-18.8-2.7-25-7.9
			c-6.1,5.2-13.9,7.9-24.9,7.9c-24.2,0-35.9-14.4-35.9-39.5v-4.5h23v6.1c0,11.2,4.3,15.5,12.1,15.5c8.7,0,13.6-4.3,13.6-19.3
			l0.3-4.3v-16.6c-6,5.8-13.5,6.1-23,6.1c-18.1,0-27-12.8-27-35.9v-28.7c0-25.1,12.7-39.5,36.9-39.5c10.6,0,18.8,2.8,25,8
			c6.2-5.2,14.4-8,25-8c24.2,0,37.1,14.4,37.1,39.5L342.1,490.6z M293.1,407.4c0-11.2,4.2-15.5,12-15.5c7.8,0,12,4.3,12,15.5v84.8
			c0,11.2-4.2,15.5-12,15.5s-12-4.3-12-15.5V407.4z M242.1,407.4c0-11.3,5.2-15.3,13-15.3c7.8,0,13,4,13,15.3v28.3
			c0,11.2-5.2,15.5-13,15.5c-7.8,0-13-4.3-13-15.5V407.4z M498.7,421.6c0.7-0.5,1.3-1.1,1.6-1.8l4.4-7.2c-3.7-3.6-8.1-6.4-12.9-8.2
			c-5.5-2.1-11.3-3.1-17.1-3c-5-0.1-10,0.7-14.7,2.3c-3.9,1.3-7.6,3.4-10.7,6.1c-2.8,2.4-5,5.4-6.5,8.8c-1.5,3.4-2.3,7-2.3,10.7
			c-0.1,3.6,0.6,7.1,2,10.4c1.3,2.8,3.1,5.2,5.4,7.2c2.3,2,4.8,3.7,7.6,4.9c2.8,1.3,5.7,2.4,8.7,3.4c2.9,1,5.8,1.9,8.7,2.8
			c2.6,0.8,5.1,1.7,7.6,2.9c2,0.9,3.8,2.3,5.4,3.9c1.4,1.6,2.1,3.7,2,5.9c0,1.7-0.3,3.4-1,5c-0.7,1.6-1.8,3-3.1,4.2
			c-1.6,1.3-3.4,2.3-5.3,2.9c-2.5,0.7-5,1.1-7.6,1.1c-3,0.1-6-0.3-8.9-1.2c-2.1-0.7-4.1-1.6-6.1-2.7c-1.7-1-3.2-1.9-4.4-2.7
			c-1.1-0.8-2.4-1.2-3.8-1.2c-1.1,0-2.1,0.2-3.1,0.8c-0.8,0.5-1.6,1.3-2.1,2.2l-4.6,7.5c1.9,1.7,4,3.3,6.3,4.6
			c2.4,1.4,5,2.6,7.6,3.6c2.8,1,5.7,1.8,8.6,2.4c3.1,0.6,6.2,0.9,9.4,0.9c5.3,0.1,10.6-0.7,15.6-2.3c4.2-1.3,8.1-3.5,11.4-6.4
			c3-2.7,5.4-6,7-9.7c1.6-3.9,2.4-8,2.4-12.2c0.1-3.1-0.5-6.2-1.7-9.1c-1.3-2.9-3.2-5.4-5.6-7.4c-2.3-1.9-4.8-3.5-7.5-4.7
			c-2.8-1.3-5.7-2.4-8.6-3.4c-2.9-1-5.8-1.9-8.6-2.8c-2.6-0.8-5.1-1.7-7.5-2.9c-2-0.9-3.8-2.2-5.3-3.8c-1.4-1.5-2.1-3.5-2-5.5
			c0-1.6,0.4-3.2,1.1-4.6c0.8-1.5,1.8-2.7,3.2-3.8c1.5-1.1,3.2-2,5-2.5c2.2-0.6,4.4-0.9,6.6-0.9c2.6,0,5.3,0.3,7.8,1
			c2,0.6,3.9,1.3,5.8,2.2c1.7,0.8,3.1,1.5,4.3,2.2c1,0.6,2.2,0.9,3.4,1C497.2,422.2,498,422,498.7,421.6z M532.8,451.1
			c0.1,4.7,1,9.3,2.5,13.8c1.2,3.6,3.1,6.8,5.6,9.7c2.3,2.5,5.2,4.5,8.4,5.7c3.5,1.3,7.2,1.9,10.9,1.9c3.4,0.1,6.8-0.4,10-1.3
			c2.5-0.8,5-1.7,7.3-2.9c2.1-1.1,3.8-2,5.3-2.9c1.2-0.8,2.6-1.2,4-1.3c0.7,0,1.4,0.1,2.1,0.4c0.6,0.3,1.2,0.8,1.6,1.4l5.6,7.2
			c-2.3,2.7-4.9,5-7.9,7c-2.9,1.9-6.1,3.4-9.3,4.6c-3.3,1.2-6.7,2-10.2,2.6c-3.4,0.5-6.8,0.8-10.2,0.8c-6.2,0.1-12.3-1-18-3.3
			c-5.4-2.1-10.3-5.4-14.4-9.6c-4.2-4.5-7.5-9.8-9.5-15.7c-2.4-6.9-3.6-14.2-3.4-21.5c0-6.2,1-12.3,3.1-18.1
			c1.9-5.4,4.9-10.4,8.8-14.6c3.9-4.2,8.6-7.6,13.9-9.9c5.9-2.5,12.2-3.7,18.5-3.6c5.4-0.1,10.8,0.9,15.9,2.8
			c4.8,1.8,9.1,4.6,12.6,8.2c3.6,3.8,6.5,8.3,8.3,13.2c2.1,5.7,3.1,11.7,3,17.8c0,3.1-0.3,5.1-1,6.1c-0.7,1-1.9,1.6-3.7,1.6H532.8z
			 M579.7,439c0-3.1-0.5-6.2-1.4-9.2c-0.9-2.7-2.3-5.2-4.2-7.4c-1.9-2.1-4.2-3.8-6.8-4.9c-3-1.2-6.2-1.8-9.4-1.8
			c-7.1,0-12.7,2-16.8,6.1c-4.1,4.1-6.7,9.8-7.8,17.2H579.7z M675.9,423c0.7-0.5,1.2-1.2,1.7-1.8l5.2-7.1c-3.9-4-8.6-7.1-13.8-9.3
			c-5.7-2.3-11.8-3.4-17.9-3.3c-6.6-0.1-13.1,1.1-19.2,3.6c-5.3,2.3-10.1,5.7-14,10c-3.8,4.5-6.7,9.7-8.5,15.3
			c-2,6.2-3,12.7-2.9,19.2c-0.1,6.9,1,13.8,3.2,20.4c1.9,5.6,5,10.7,8.9,15.1c3.7,4.1,8.2,7.3,13.2,9.4c5.1,2.2,10.7,3.3,16.2,3.3
			c3.3,0,6.7-0.3,10-0.8c3.3-0.5,6.4-1.4,9.5-2.6c3.1-1.2,6-2.8,8.7-4.6c2.8-2,5.3-4.3,7.5-7l-5.6-7.2c-0.4-0.6-1-1.1-1.6-1.4
			c-0.6-0.3-1.4-0.5-2.1-0.4c-1.3,0-2.6,0.5-3.6,1.4c-1.1,0.9-2.5,1.9-4.1,3c-1.9,1.2-3.8,2.2-5.9,3c-3,1-6.1,1.5-9.2,1.4
			c-3.6,0.1-7.1-0.7-10.4-2.2c-3.1-1.5-5.8-3.7-7.9-6.4c-2.3-3.1-4-6.6-5-10.3c-1.2-4.6-1.8-9.3-1.7-14c-0.1-4.6,0.5-9.2,1.6-13.7
			c0.9-3.7,2.6-7.3,4.9-10.3c2.1-2.8,4.9-5,8-6.5c3.5-1.6,7.4-2.4,11.2-2.3c2.8-0.1,5.6,0.3,8.2,1.1c2,0.6,3.8,1.4,5.6,2.4
			c1.5,0.9,2.9,1.7,4,2.4c1,0.7,2.1,1.1,3.2,1.1C674.4,423.7,675.2,423.5,675.9,423z M732.3,401.4c6.4-0.1,12.8,1.1,18.7,3.4
			c5.4,2.1,10.3,5.4,14.3,9.6c4.1,4.3,7.2,9.5,9.1,15.1c4.3,13,4.3,26.9,0,39.9c-2,5.6-5.1,10.8-9.1,15.1c-4,4.2-8.9,7.5-14.3,9.7
			c-12.1,4.5-25.4,4.5-37.5,0c-5.4-2.1-10.3-5.4-14.4-9.7c-4.1-4.4-7.2-9.5-9.2-15.1c-4.3-13-4.3-26.9,0-39.9
			c2-5.6,5.1-10.8,9.2-15.1c4-4.2,8.9-7.5,14.3-9.6C719.4,402.4,725.8,401.3,732.3,401.4z M732.3,482.2c8.4,0,14.7-2.8,18.8-8.5
			c4.1-5.6,6.2-13.7,6.2-24.2c0-10.5-2.1-18.6-6.2-24.3c-4.1-5.7-10.4-8.6-18.8-8.6c-8.6,0-14.9,2.9-19,8.6
			c-4.1,5.7-6.2,13.8-6.3,24.3c0,10.5,2.1,18.6,6.2,24.2C717.4,479.4,723.7,482.2,732.3,482.2z M813.1,409.6
			c-2.2,1.7-4.3,3.6-6.3,5.6l-1.3-8.6c-0.3-1.1-0.9-2.1-1.9-2.8c-0.9-0.7-2.1-1-3.3-0.9h-11.9v93.3h19.7v-68
			c3.1-3.3,6.6-6.1,10.6-8.2c3.8-2,8-3,12.2-3c5.9,0,10.3,1.7,13.2,5.2c2.9,3.5,4.3,8.4,4.3,14.6v59.4h19.6v-59.4
			c0.1-4.9-0.6-9.7-2-14.4c-1.2-4.1-3.3-7.9-6-11.2c-2.7-3.1-6-5.6-9.8-7.2c-4.3-1.8-8.9-2.7-13.5-2.6c-3,0-6.1,0.3-9,1
			c-2.7,0.7-5.3,1.6-7.8,2.8C817.5,406.5,815.2,407.9,813.1,409.6z M963.2,369l0.1,127.2h-11.9c-1.1,0.1-2.3-0.3-3.2-0.9
			c-0.9-0.7-1.6-1.7-1.8-2.8l-1.7-10.2c-3.7,4.4-8.3,8.2-13.3,11.1c-5.3,2.9-11.3,4.3-17.3,4.2c-4.9,0.1-9.8-1-14.3-3.2
			c-4.3-2.2-8.1-5.3-11-9.2c-3.3-4.5-5.7-9.6-7.1-15c-1.8-6.7-2.6-13.6-2.5-20.5c-0.1-6.5,0.9-13.1,2.8-19.3
			c1.7-5.6,4.4-10.8,8-15.4c3.5-4.4,8-8,13.1-10.4c5.1-2.4,10.7-3.6,16.3-3.5c4.5-0.2,9,0.6,13.2,2.3c4.2,1.7,8,4.3,11.1,7.6
			l-0.4-42L963.2,369z M943.7,425.8c-2.3-3.2-5.4-5.7-9-7.4c-3.4-1.4-7-2.1-10.7-2.1c-7.7,0-13.7,2.8-18,8.5c-4.3,5.6-6.5,14-6.5,25
			c-0.1,4.9,0.4,9.9,1.5,14.7c0.8,3.5,2.2,6.9,4.2,9.9c1.7,2.4,4,4.4,6.7,5.6c2.8,1.2,5.8,1.8,8.9,1.7c4.5,0.1,9-1,12.9-3.3
			c3.9-2.4,7.3-5.5,10.1-9.2L943.7,425.8z M1035.4,421.6c0.7-0.5,1.3-1.1,1.6-1.8l4.4-7.3c-3.7-3.6-8.1-6.4-12.9-8.2
			c-5.5-2.1-11.3-3.1-17.1-3c-5-0.1-9.9,0.7-14.7,2.3c-3.9,1.3-7.6,3.4-10.7,6.1c-2.8,2.4-5,5.4-6.6,8.8c-1.5,3.4-2.3,7-2.3,10.7
			c-0.1,3.6,0.6,7.1,2,10.4c1.3,2.8,3.1,5.2,5.4,7.2c2.3,2,4.8,3.7,7.6,4.9c2.8,1.3,5.7,2.4,8.7,3.4c2.9,1,5.8,1.9,8.6,2.8
			c2.6,0.8,5.1,1.7,7.6,2.9c2,0.9,3.8,2.3,5.4,3.9c1.4,1.6,2.1,3.7,2,5.9c0,1.7-0.3,3.4-1,5c-0.7,1.6-1.8,3-3.1,4.2
			c-1.6,1.3-3.4,2.3-5.3,2.9c-2.5,0.7-5,1.1-7.6,1.1c-3,0.1-6-0.3-8.9-1.2c-2.1-0.7-4.1-1.6-6.1-2.7c-1.7-1-3.1-1.9-4.4-2.7
			c-1.1-0.8-2.4-1.2-3.8-1.2c-1.1,0-2.1,0.2-3.1,0.8c-0.8,0.5-1.6,1.3-2.1,2.2l-4.6,7.5c1.9,1.7,4,3.3,6.3,4.6
			c2.4,1.4,5,2.6,7.6,3.6c2.8,1,5.7,1.8,8.6,2.4c3.1,0.6,6.2,0.9,9.4,0.9c5.3,0.1,10.6-0.7,15.6-2.3c4.2-1.3,8.1-3.5,11.4-6.4
			c3-2.7,5.4-6,7-9.7c1.6-3.9,2.4-8,2.4-12.2c0.1-3.1-0.5-6.2-1.7-9.1c-1.3-2.8-3.2-5.4-5.6-7.4c-2.3-1.9-4.8-3.5-7.5-4.7
			c-2.8-1.3-5.7-2.4-8.6-3.4c-2.9-1-5.8-1.9-8.6-2.8c-2.6-0.8-5.1-1.7-7.5-2.9c-2-0.9-3.8-2.2-5.3-3.8c-1.3-1.5-2.1-3.5-2-5.5
			c0-1.6,0.4-3.2,1.1-4.6c0.8-1.5,1.8-2.7,3.2-3.8c1.5-1.1,3.2-2,5-2.5c2.2-0.6,4.4-0.9,6.6-0.9c2.6,0,5.3,0.3,7.8,1
			c2,0.6,3.9,1.3,5.8,2.2c1.7,0.8,3.1,1.5,4.3,2.2c1,0.6,2.2,0.9,3.4,1C1033.9,422.2,1034.7,422,1035.4,421.6z"/>
	</g>
</g>
</svg>
