<?xml version="1.0" encoding="utf-8"?>
<!-- Generator: Adobe Illustrator 26.0.0, SVG Export Plug-In . SVG Version: 6.00 Build 0)  -->
<svg version="1.1" id="Layer_1" xmlns="http://www.w3.org/2000/svg" xmlns:xlink="http://www.w3.org/1999/xlink" x="0px" y="0px"
	 viewBox="0 0 900 900" style="enable-background:new 0 0 900 900;" xml:space="preserve">
<style type="text/css">
	.st0{fill-rule:evenodd;clip-rule:evenodd;fill:#FFFFFF;}
</style>
<g>
	<rect x="-0.5" width="901" height="900"/>
	<g>
		<path class="st0" d="M178.4,345.3c-20.7,0-40.9,6.1-58.2,17.6c-17.2,11.5-30.6,27.8-38.6,47s-10,40.2-6,60.5
			c4,20.3,14,39,28.7,53.6c14.6,14.6,33.3,24.6,53.6,28.7c20.3,4,41.4,2,60.5-6c19.2-7.9,35.5-21.4,47-38.6
			c11.5-17.2,17.6-37.5,17.6-58.2c0-13.8-2.7-27.4-8-40.1c-5.3-12.7-13-24.3-22.7-34c-9.7-9.7-21.3-17.4-34-22.7
			C205.8,348,192.2,345.3,178.4,345.3z M231,484.6c0,21.4-11.1,33.6-31.7,33.6c-8.9,0-16-2.3-21.3-6.7c-5.2,4.4-11.8,6.7-21.2,6.7
			c-20.6,0-30.6-12.3-30.6-33.6v-3.8h19.6v5.2c0,9.5,3.7,13.2,10.3,13.2c7.4,0,11.6-3.7,11.6-16.4l0.3-3.7V465
			c-5.1,4.9-11.5,5.2-19.6,5.2c-15.4,0-23-10.9-23-30.6v-24.4c0-21.4,10.8-33.6,31.4-33.6c9,0,16,2.4,21.3,6.8
			c5.3-4.4,12.3-6.8,21.3-6.8c20.6,0,31.6,12.3,31.6,33.6V484.6z M189.3,413.8c0-9.5,3.6-13.2,10.2-13.2s10.2,3.7,10.2,13.2V486
			c0,9.5-3.6,13.2-10.2,13.2s-10.2-3.7-10.2-13.2V413.8z M145.9,413.8c0-9.6,4.4-13,11.1-13c6.6,0,11.1,3.4,11.1,13v24.1
			c0,9.5-4.4,13.2-11.1,13.2c-6.6,0-11.1-3.7-11.1-13.2V413.8z M364.3,425.9c0.6-0.4,1.1-0.9,1.4-1.5l3.7-6.1c-3.1-3.1-6.9-5.4-11-7
			c-4.7-1.8-9.6-2.6-14.6-2.6c-4.3-0.1-8.5,0.6-12.5,2c-3.3,1.1-6.5,2.9-9.1,5.2c-2.4,2-4.3,4.6-5.5,7.5s-2,6-2,9.1
			c-0.1,3.1,0.5,6,1.7,8.9c1.1,2.4,2.6,4.4,4.6,6.1c2,1.7,4.1,3.1,6.5,4.2c2.4,1.1,4.9,2,7.4,2.9c2.5,0.9,4.9,1.6,7.4,2.4
			c2.2,0.7,4.3,1.4,6.5,2.5c1.7,0.8,3.2,2,4.6,3.3c1.2,1.4,1.8,3.1,1.7,5c0,1.4-0.3,2.9-0.9,4.3c-0.6,1.4-1.5,2.6-2.6,3.6
			c-1.4,1.1-2.9,2-4.5,2.5c-2.1,0.6-4.3,0.9-6.5,0.9c-2.6,0.1-5.1-0.3-7.6-1c-1.8-0.6-3.5-1.4-5.2-2.3c-1.4-0.9-2.7-1.6-3.7-2.3
			c-0.9-0.7-2-1-3.2-1c-0.9,0-1.8,0.2-2.6,0.7c-0.7,0.4-1.4,1.1-1.8,1.9l-3.9,6.4c1.6,1.4,3.4,2.8,5.4,3.9c2,1.2,4.3,2.2,6.5,3.1
			c2.4,0.9,4.9,1.5,7.3,2c2.6,0.5,5.3,0.8,8,0.8c4.5,0.1,9-0.6,13.3-2c3.6-1.1,6.9-3,9.7-5.4c2.6-2.3,4.6-5.1,6-8.3
			c1.4-3.3,2-6.8,2-10.4c0.1-2.6-0.4-5.3-1.4-7.7c-1.1-2.5-2.7-4.6-4.8-6.3c-2-1.6-4.1-3-6.4-4c-2.4-1.1-4.9-2-7.3-2.9
			c-2.5-0.9-4.9-1.6-7.3-2.4c-2.2-0.7-4.3-1.4-6.4-2.5c-1.7-0.8-3.2-1.9-4.5-3.2c-1.2-1.3-1.8-3-1.7-4.7c0-1.4,0.3-2.7,0.9-3.9
			c0.7-1.3,1.5-2.3,2.7-3.2c1.3-0.9,2.7-1.7,4.3-2.1c1.9-0.5,3.7-0.8,5.6-0.8c2.2,0,4.5,0.3,6.6,0.9c1.7,0.5,3.3,1.1,4.9,1.9
			c1.4,0.7,2.6,1.3,3.7,1.9c0.9,0.5,1.9,0.8,2.9,0.9C363,426.4,363.7,426.2,364.3,425.9z M393.3,451c0.1,4,0.9,7.9,2.1,11.7
			c1,3.1,2.6,5.8,4.8,8.3c2,2.1,4.4,3.8,7.1,4.9c3,1.1,6.1,1.6,9.3,1.6c2.9,0.1,5.8-0.3,8.5-1.1c2.1-0.7,4.3-1.4,6.2-2.5
			c1.8-0.9,3.2-1.7,4.5-2.5c1-0.7,2.2-1,3.4-1.1c0.6,0,1.2,0.1,1.8,0.3c0.5,0.3,1,0.7,1.4,1.2l4.8,6.1c-2,2.3-4.2,4.3-6.7,6
			c-2.5,1.6-5.2,2.9-7.9,3.9c-2.8,1-5.7,1.7-8.7,2.2c-2.9,0.4-5.8,0.7-8.7,0.7c-5.3,0.1-10.5-0.9-15.3-2.8
			c-4.6-1.8-8.8-4.6-12.3-8.2c-3.6-3.8-6.4-8.3-8.1-13.4c-2-5.9-3.1-12.1-2.9-18.3c0-5.3,0.9-10.5,2.6-15.4
			c1.6-4.6,4.2-8.9,7.5-12.4c3.3-3.6,7.3-6.5,11.8-8.4c5-2.1,10.4-3.1,15.7-3.1c4.6-0.1,9.2,0.8,13.5,2.4c4.1,1.5,7.7,3.9,10.7,7
			c3.1,3.2,5.5,7.1,7.1,11.2c1.8,4.9,2.6,10,2.6,15.2c0,2.6-0.3,4.3-0.9,5.2s-1.6,1.4-3.1,1.4L393.3,451L393.3,451z M433.2,440.7
			c0-2.6-0.4-5.3-1.2-7.8c-0.8-2.3-2-4.4-3.6-6.3c-1.6-1.8-3.6-3.2-5.8-4.2c-2.6-1-5.3-1.5-8-1.5c-6,0-10.8,1.7-14.3,5.2
			s-5.7,8.3-6.6,14.6H433.2L433.2,440.7z M515.1,427.1c0.6-0.4,1-1,1.4-1.5l4.4-6c-3.3-3.4-7.3-6-11.7-7.9c-4.9-2-10-2.9-15.2-2.8
			c-5.6-0.1-11.2,0.9-16.3,3.1c-4.5,2-8.6,4.9-11.9,8.5c-3.2,3.8-5.7,8.3-7.2,13c-1.7,5.3-2.6,10.8-2.5,16.3
			c-0.1,5.9,0.9,11.7,2.7,17.4c1.6,4.8,4.3,9.1,7.6,12.9c3.1,3.5,7,6.2,11.2,8c4.3,1.9,9.1,2.8,13.8,2.8c2.8,0,5.7-0.3,8.5-0.7
			c2.8-0.4,5.4-1.2,8.1-2.2s5.1-2.4,7.4-3.9c2.4-1.7,4.5-3.7,6.4-6l-4.8-6.1c-0.3-0.5-0.9-0.9-1.4-1.2s-1.2-0.4-1.8-0.3
			c-1.1,0-2.2,0.4-3.1,1.2c-0.9,0.8-2.1,1.6-3.5,2.6c-1.6,1-3.2,1.9-5,2.6c-2.6,0.9-5.2,1.3-7.8,1.2c-3.1,0.1-6-0.6-8.9-1.9
			c-2.6-1.3-4.9-3.1-6.7-5.4c-2-2.6-3.4-5.6-4.3-8.8c-1-3.9-1.5-7.9-1.4-11.9c-0.1-3.9,0.4-7.8,1.4-11.7c0.8-3.1,2.2-6.2,4.2-8.8
			c1.8-2.4,4.2-4.3,6.8-5.5c3-1.4,6.3-2,9.5-2c2.4-0.1,4.8,0.3,7,0.9c1.7,0.5,3.2,1.2,4.8,2c1.3,0.8,2.5,1.4,3.4,2
			c0.9,0.6,1.8,0.9,2.7,0.9C513.8,427.7,514.5,427.5,515.1,427.1z M563.1,408.7c5.4-0.1,10.9,0.9,15.9,2.9c4.6,1.8,8.8,4.6,12.2,8.2
			c3.5,3.7,6.1,8.1,7.7,12.9c3.7,11.1,3.7,22.9,0,34c-1.7,4.8-4.3,9.2-7.7,12.9c-3.4,3.6-7.6,6.4-12.2,8.3
			c-10.3,3.8-21.6,3.8-31.9,0c-4.6-1.8-8.8-4.6-12.3-8.3c-3.5-3.7-6.1-8.1-7.8-12.9c-3.7-11.1-3.7-22.9,0-34
			c1.7-4.8,4.3-9.2,7.8-12.9c3.4-3.6,7.6-6.4,12.2-8.2C552.1,409.6,557.6,408.6,563.1,408.7z M563.1,477.5c7.1,0,12.5-2.4,16-7.2
			c3.5-4.8,5.3-11.7,5.3-20.6s-1.8-15.8-5.3-20.7c-3.5-4.9-8.9-7.3-16-7.3c-7.3,0-12.7,2.5-16.2,7.3c-3.5,4.9-5.3,11.7-5.4,20.7
			c0,8.9,1.8,15.8,5.3,20.6C550.4,475.1,555.8,477.5,563.1,477.5z M631.9,415.7c-1.9,1.4-3.7,3.1-5.4,4.8l-1.1-7.3
			c-0.3-0.9-0.8-1.8-1.6-2.4c-0.8-0.6-1.8-0.9-2.8-0.8h-10.1v79.4h16.8v-57.9c2.6-2.8,5.6-5.2,9-7c3.2-1.7,6.8-2.6,10.4-2.6
			c5,0,8.8,1.4,11.2,4.4s3.7,7.1,3.7,12.4v50.6h16.7v-50.6c0.1-4.2-0.5-8.3-1.7-12.3c-1-3.5-2.8-6.7-5.1-9.5
			c-2.3-2.6-5.1-4.8-8.3-6.1c-3.7-1.5-7.6-2.3-11.5-2.2c-2.6,0-5.2,0.3-7.7,0.9c-2.3,0.6-4.5,1.4-6.6,2.4
			C635.6,413,633.7,414.2,631.9,415.7z M759.6,381.1l0.1,108.3h-10.1c-0.9,0.1-2-0.3-2.7-0.8c-0.8-0.6-1.4-1.4-1.5-2.4l-1.4-8.7
			c-3.1,3.7-7.1,7-11.3,9.4c-4.5,2.5-9.6,3.7-14.7,3.6c-4.2,0.1-8.3-0.9-12.2-2.7c-3.7-1.9-6.9-4.5-9.4-7.8c-2.8-3.8-4.9-8.2-6-12.8
			c-1.5-5.7-2.2-11.6-2.1-17.4c-0.1-5.5,0.8-11.2,2.4-16.4c1.4-4.8,3.7-9.2,6.8-13.1c3-3.7,6.8-6.8,11.2-8.9c4.3-2,9.1-3.1,13.9-3
			c3.8-0.2,7.7,0.5,11.2,2c3.6,1.4,6.8,3.7,9.4,6.5l-0.3-35.7L759.6,381.1z M743,429.5c-2-2.7-4.6-4.9-7.7-6.3
			c-2.9-1.2-6-1.8-9.1-1.8c-6.6,0-11.7,2.4-15.3,7.2c-3.7,4.8-5.5,11.9-5.5,21.3c-0.1,4.2,0.3,8.4,1.3,12.5c0.7,3,1.9,5.9,3.6,8.4
			c1.4,2,3.4,3.7,5.7,4.8c2.4,1,4.9,1.5,7.6,1.4c3.8,0.1,7.7-0.9,11-2.8c3.3-2,6.2-4.7,8.6-7.8L743,429.5z M821.1,425.9
			c0.6-0.4,1.1-0.9,1.4-1.5l3.7-6.2c-3.1-3.1-6.9-5.4-11-7c-4.7-1.8-9.6-2.6-14.6-2.6c-4.3-0.1-8.4,0.6-12.5,2
			c-3.3,1.1-6.5,2.9-9.1,5.2c-2.4,2-4.3,4.6-5.6,7.5c-1.3,2.9-2,6-2,9.1c-0.1,3.1,0.5,6,1.7,8.9c1.1,2.4,2.6,4.4,4.6,6.1
			s4.1,3.1,6.5,4.2c2.4,1.1,4.9,2,7.4,2.9c2.5,0.9,4.9,1.6,7.3,2.4c2.2,0.7,4.3,1.4,6.5,2.5c1.7,0.8,3.2,2,4.6,3.3
			c1.2,1.4,1.8,3.1,1.7,5c0,1.4-0.3,2.9-0.9,4.3c-0.6,1.4-1.5,2.6-2.6,3.6c-1.4,1.1-2.9,2-4.5,2.5c-2.1,0.6-4.3,0.9-6.5,0.9
			c-2.6,0.1-5.1-0.3-7.6-1c-1.8-0.6-3.5-1.4-5.2-2.3c-1.4-0.9-2.6-1.6-3.7-2.3c-0.9-0.7-2-1-3.2-1c-0.9,0-1.8,0.2-2.6,0.7
			c-0.7,0.4-1.4,1.1-1.8,1.9l-3.9,6.4c1.6,1.4,3.4,2.8,5.4,3.9c2,1.2,4.3,2.2,6.5,3.1c2.4,0.9,4.9,1.5,7.3,2c2.6,0.5,5.3,0.8,8,0.8
			c4.5,0.1,9-0.6,13.3-2c3.6-1.1,6.9-3,9.7-5.4c2.6-2.3,4.6-5.1,6-8.3c1.4-3.3,2-6.8,2-10.4c0.1-2.6-0.4-5.3-1.4-7.7
			c-1.1-2.4-2.7-4.6-4.8-6.3c-2-1.6-4.1-3-6.4-4c-2.4-1.1-4.9-2-7.3-2.9c-2.5-0.9-4.9-1.6-7.3-2.4c-2.2-0.7-4.3-1.4-6.4-2.5
			c-1.7-0.8-3.2-1.9-4.5-3.2c-1.1-1.3-1.8-3-1.7-4.7c0-1.4,0.3-2.7,0.9-3.9c0.7-1.3,1.5-2.3,2.7-3.2c1.3-0.9,2.7-1.7,4.3-2.1
			c1.9-0.5,3.7-0.8,5.6-0.8c2.2,0,4.5,0.3,6.6,0.9c1.7,0.5,3.3,1.1,4.9,1.9c1.4,0.7,2.6,1.3,3.7,1.9c0.9,0.5,1.9,0.8,2.9,0.9
			C819.8,426.4,820.5,426.2,821.1,425.9z"/>
	</g>
</g>
</svg>
